<svg width="65" height="65" viewBox="0 0 65 65" fill="none" xmlns="http://www.w3.org/2000/svg">
<path fill-rule="evenodd" clip-rule="evenodd" d="M30.7758 12.4114L31.3607 10.337C32.9141 4.84508 38.4701 3.01747 43.6605 3.25506C49.454 3.52006 53.6301 5.10094 55.0739 11.2691L61.7264 39.6062L63.1793 45.0342C65.2171 52.6644 60.8217 59.4723 52.6706 59.5179C48.0924 59.5454 44.7296 58.1655 42.5639 55.3145C40.8916 58.5767 38.0406 60.9892 34.0381 60.9983C29.7341 61.0074 26.9653 59.3443 24.9732 56.1826C22.7344 60.4135 18.3481 62.5152 12.847 62.6249C9.52076 62.3873 7.27281 61.3455 6.03917 60.6419C4.88778 59.984 4.33036 59.454 4.18415 59.3078C2.55758 57.7177 2.14637 55.817 1.68947 54.0717C1.04067 51.577 1.18688 49.4021 1.39705 48.0314L4.13846 13.9923C4.71416 6.90114 8.77144 2.96264 15.9631 2.66109C22.0033 2.40522 26.5358 3.39213 29.3137 9.2953L30.785 12.4114H30.7758ZM50.8155 12.2743L57.4772 40.6753L58.9393 46.1673C60.3008 51.1292 57.8061 55.1134 52.634 55.1408C47.5624 55.1774 45.3876 53.1944 44.3275 48.3147L42.838 40.3007L39.3564 51.577C38.6163 54.2544 36.8709 56.612 34.0198 56.6212C30.6845 56.6303 29.2498 55.2779 27.7146 52.0248L22.8897 41.05L22.1495 50.1697C21.318 56.3836 17.416 58.2569 12.3627 58.2569C11.586 58.2569 10.8823 58.1746 10.2609 58.0284C10.2609 58.0284 9.68525 57.9097 9.61214 57.7909C9.68525 57.9097 8.9542 57.5533 8.9542 57.5533C6.33159 56.2191 5.50917 53.0391 5.75589 48.397L8.50644 14.3486C8.78972 9.91669 10.7544 7.49511 16.1458 7.03821C21.1261 7.03821 23.5385 7.44028 25.3478 11.1595L31.7993 24.8848L35.5824 11.5341C36.5968 8.71047 39.5758 7.45855 43.4594 7.63218C47.7634 7.83321 49.8743 8.50029 50.8155 12.2743ZM54.8728 35.7773L52.8351 27.0871L37.4923 12.0641L36.0028 17.3002L54.8728 35.7682V35.7773ZM42.3354 36.8922L43.5965 32.8257L44.7936 39.3046L57.3584 51.6044C58.0529 50.389 58.1534 48.7533 57.6691 46.944L57.0477 44.6047L34.5224 22.5455L33.0421 27.7815L42.3354 36.883V36.8922ZM46.3105 47.474L46.4658 48.3147C47.206 52.3172 48.7778 53.6605 52.6888 53.7244L46.3105 47.4832V47.474ZM50.7973 18.3968L49.4174 12.5302C49.2255 11.7169 48.9148 10.7848 48.2386 10.2365C47.1969 9.40496 44.9489 9.30444 43.6787 9.24047C43.0482 9.21306 42.2898 9.2222 41.5313 9.31358L50.8064 18.3876L50.7973 18.3968ZM16.155 8.6465C15.2595 8.68305 14.4919 8.78357 13.8248 8.96633L29.7524 24.565L23.9223 12.1555L20.5778 8.88409C19.1523 8.52771 17.3978 8.59167 16.155 8.6465ZM10.4894 12.3931C10.3432 12.9688 10.2335 13.6176 10.1787 14.3578L9.84973 18.4607L39.1645 47.1633L40.7546 42.0277L10.4894 12.3931ZM9.34714 24.6655L8.84455 30.8702L20.9524 42.7222L21.455 36.5266L9.34714 24.6655ZM23.904 38.9208L29.0579 50.6632L33.7 55.2048C33.8553 55.2048 34.0198 55.2139 34.1935 55.2139C35.9114 55.2139 36.944 53.7518 37.538 52.2715L23.904 38.9208ZM8.34196 37.0749L7.83936 43.2797L19.07 54.2727C19.7554 53.3041 20.194 52.0339 20.3219 50.3708L20.4407 48.927L8.33282 37.0749H8.34196ZM7.34591 49.4935C7.22712 51.5404 7.32763 54.4098 8.79886 55.8079C9.70352 56.6669 11.0377 56.8771 12.2439 56.8771C13.1211 56.8771 13.9436 56.8222 14.702 56.6943L7.34591 49.4935Z" fill="#1CA4D2"/>
</svg>
